<?xml version="1.0" encoding="utf-8"?>
<!-- Generator: Adobe Illustrator 23.0.0, SVG Export Plug-In . SVG Version: 6.00 Build 0)  -->
<svg version="1.1" id="Layer_2" xmlns="http://www.w3.org/2000/svg" xmlns:xlink="http://www.w3.org/1999/xlink" x="0px" y="0px"
	 viewBox="0 0 273.5 493.6" style="enable-background:new 0 0 273.5 493.6;" xml:space="preserve">
<style type="text/css">
	.st0{fill:#6A8C3B;}
</style>
<g>
	<polygon class="st0" points="135.5,206.2 90.8,161.5 90.8,74.2 120.1,103.5 120.1,145.9 136,161.8 152.2,145.6 152.2,104.6 
		181,75.8 181,118.7 213,86.7 213,0 136.3,76.7 59.8,0.2 59.8,127.3 0.3,69.7 0.3,283.8 31.2,312.7 31.2,142 136.3,248.1 
		241.8,142.5 241.8,271.6 212.9,300.6 212.9,213.8 136.1,290.6 59.6,214 59.6,343.1 89.9,373.4 89.9,288.2 120.4,318.7 120.4,403.9 
		136.3,419.8 152.1,404 152.1,318.9 181.1,289.9 181.1,374.9 273.5,282.5 273.5,68.2 	"/>
	<polygon class="st0" points="0.3,314.6 0,356.7 136.8,493.6 272.6,313.7 272.6,313.7 136,450.3 	"/>
</g>
</svg>
