<?xml version="1.0" encoding="utf-8"?>
<!-- Generator: Adobe Illustrator 23.0.0, SVG Export Plug-In . SVG Version: 6.00 Build 0)  -->
<svg version="1.1" id="Layer_1" xmlns="http://www.w3.org/2000/svg" xmlns:xlink="http://www.w3.org/1999/xlink" x="0px" y="0px"
	 viewBox="0 0 138 138.2" style="enable-background:new 0 0 138 138.2;" xml:space="preserve">
<style type="text/css">
	.st0{fill:#E3A102;}
</style>
<g>
	<path class="st0" d="M84.1,130.2c1.1-15.3,1.9-30.5,3.5-45.8c0.2-2.4,3-5.4,5.6-6.7c11.6-6,11.8-5.8,9.5-19.2
		c-9.1,2.3-18.4,3.7-26.5,7.2c-2.8,1.2-3,7.6-3.6,11.7c-0.6,4-0.1,8.2-0.1,12.2c-1.9,0-3.9,0-5.8,0c-0.3-3.7-1.5-7.5-0.8-11.1
		c1.9-9.5-1.4-15.2-13.1-16.5c-5.4-0.6-10.7-1.9-16.1-2.9c-3.5,9.5-2,15.8,8.6,19.1c2.4,0.7,5.5,3.1,5.7,4.9
		c1.9,15.9,3.3,31.9,5,50.1c-10.5-11.9-21.1-20.8-22.6-35.1c-1.6-14.6-6.9-29-8.6-43.6c-2-17.1,6.2-30.5,24.3-39.1
		c7.5-3.6,14.1-8.5,20.3-12.3c7.8,4.6,15.4,8.8,22.7,13.4c10.8,6.9,19.3,15.2,20.6,27.6C115.9,75.9,107.6,104.8,84.1,130.2z"/>
</g>
</svg>
